<?xml version="1.0" encoding="UTF-8" standalone="no"?>
<!DOCTYPE svg PUBLIC "-//W3C//DTD SVG 20010904//EN" "http://www.w3.org/TR/2001/REC-SVG-20010904/DTD/svg10.dtd">
<svg version="1.0" xmlns="http://www.w3.org/2000/svg" width="468pt" height="236pt" viewBox="0 0 468 236" preserveAspectRatio="xMidYMid meet">
<metadata>
Created by POTRACE VERSION, written by Peter Selinger 2001-2007
</metadata>
<g transform="translate(0,236) scale(0.011762,-0.011762)" fill="#000000" stroke="none">
<path d="M27175 19159 c-83 -5 -132 -15 -199 -38 -86 -30 -94 -31 -201 -25 -91 6 -129 3 -210 -14 -55 -11 -133 -23 -173 -26 -40 -4 -101 -16 -135 -27 -34 -12 -91 -27 -127 -35 -36 -8 -117 -16 -180 -20 -63 -3 -137 -10 -165 -16 -27 -6 -74 -22 -104 -35 -30 -13 -92 -33 -138 -44 -46 -11 -119 -24 -163 -29 -60 -7 -97 -18 -157 -49 -43 -21 -104 -44 -137 -51 -32 -7 -86 -25 -119 -41 -33 -15 -86 -34 -116 -40 -31 -6 -73 -16 -93 -21 -21 -5 -58 -26 -83 -48 -26 -22 -48 -40 -50 -40 -2 0 -36 -7 -75 -15 -51 -11 -94 -29 -153 -66 -45 -27 -100 -63 -122 -80 -25 -18 -72 -37 -125 -50 -47 -11 -99 -31 -115 -43 -17 -13 -64 -40 -105 -61 -41 -21 -86 -45 -100 -55 -14 -9 -63 -32 -110 -49 -47 -18 -130 -55 -185 -83 -55 -28 -112 -61 -127 -73 -15 -13 -49 -31 -75 -40 -26 -9 -84 -34 -128 -55 -44 -21 -106 -50 -138 -64 -32 -14 -101 -54 -155 -90 -53 -36 -128 -90 -167 -120 -38 -31 -90 -68 -114 -83 -24 -16 -72 -49 -105 -75 -34 -26 -97 -70 -141 -98 -44 -27 -116 -75 -160 -107 -43 -32 -93 -70 -110 -84 -17 -15 -72 -48 -123 -74 -66 -33 -111 -66 -159 -113 -38 -36 -98 -89 -135 -118 -36 -29 -76 -57 -88 -64 -12 -6 -45 -32 -75 -58 -29 -26 -73 -64 -98 -84 -24 -20 -71 -53 -103 -72 -39 -23 -87 -67 -144 -131 -47 -54 -123 -130 -170 -170 -47 -40 -132 -122 -190 -182 -58 -60 -145 -155 -195 -212 -49 -57 -136 -147 -193 -199 -59 -55 -118 -120 -137 -153 -19 -31 -42 -63 -52 -70 -9 -8 -32 -39 -51 -69 -18 -30 -91 -111 -160 -180 -70 -69 -154 -161 -187 -205 -33 -44 -87 -109 -120 -145 -34 -36 -79 -90 -101 -120 -23 -30 -50 -71 -62 -91 -12 -19 -31 -44 -43 -55 -12 -10 -36 -49 -55 -85 -18 -37 -51 -89 -74 -115 -22 -27 -56 -68 -76 -92 -20 -23 -46 -70 -59 -103 -13 -33 -39 -78 -57 -98 -18 -21 -54 -67 -80 -103 -26 -35 -63 -105 -84 -154 -20 -49 -50 -116 -66 -149 -17 -33 -46 -82 -65 -109 -20 -27 -53 -86 -75 -130 -22 -45 -59 -119 -83 -166 -24 -47 -58 -130 -75 -185 -18 -55 -43 -121 -56 -148 -14 -26 -54 -90 -89 -143 -36 -53 -72 -109 -81 -126 -8 -16 -24 -73 -34 -126 -10 -53 -26 -114 -34 -134 -9 -20 -28 -92 -42 -160 -14 -68 -39 -154 -56 -191 -23 -55 -32 -96 -44 -205 -8 -76 -19 -175 -25 -222 -5 -47 -18 -121 -28 -165 -14 -62 -19 -125 -20 -285 -1 -133 -8 -272 -22 -395 -18 -166 -19 -203 -9 -292 10 -83 9 -107 -2 -129 -7 -15 -20 -32 -29 -37 -9 -5 -27 -7 -40 -4 -14 4 -69 46 -124 95 -55 50 -122 112 -150 138 -27 27 -66 71 -85 99 -20 28 -54 60 -78 73 -33 19 -58 24 -112 24 -52 0 -82 -6 -118 -23 -26 -13 -69 -46 -97 -74 -27 -27 -61 -72 -74 -98 -19 -40 -22 -60 -19 -111 3 -56 9 -71 53 -136 40 -58 66 -83 124 -122 41 -26 99 -56 130 -64 31 -9 70 -23 86 -31 17 -9 51 -32 76 -54 26 -21 95 -64 155 -97 88 -48 131 -79 225 -168 67 -62 126 -127 139 -151 15 -29 24 -74 31 -145 5 -57 20 -139 33 -183 13 -44 29 -114 36 -155 6 -41 21 -111 32 -155 11 -44 33 -110 49 -146 16 -37 38 -106 49 -155 11 -49 36 -132 56 -184 20 -52 63 -149 95 -215 33 -66 60 -126 59 -134 0 -8 20 -51 44 -96 25 -45 62 -109 83 -142 22 -33 49 -87 61 -120 12 -32 37 -77 55 -98 18 -22 46 -62 62 -90 16 -27 42 -71 59 -97 17 -25 42 -65 56 -88 14 -23 52 -63 85 -88 33 -25 84 -68 114 -96 29 -28 71 -75 93 -105 23 -30 100 -113 172 -186 72 -73 154 -157 181 -187 28 -30 85 -78 129 -107 43 -29 104 -64 135 -78 46 -21 67 -24 117 -20 36 3 86 15 119 31 31 14 88 53 125 86 41 37 84 88 110 131 24 38 51 100 61 136 10 36 28 117 39 180 11 63 30 140 41 171 12 32 23 94 26 142 3 55 0 116 -11 173 -11 64 -25 106 -51 150 -19 34 -51 83 -69 109 -19 26 -42 70 -51 97 -8 26 -44 104 -79 172 -35 68 -85 165 -111 214 -27 50 -67 112 -89 138 -23 27 -57 67 -77 90 -20 23 -49 67 -64 97 -15 30 -60 97 -99 148 -39 52 -87 116 -107 143 -20 27 -49 63 -65 80 -16 17 -76 64 -134 104 -58 41 -166 126 -240 190 -74 63 -171 140 -215 170 -44 30 -111 82 -150 115 -38 34 -96 75 -129 91 -32 17 -94 57 -136 90 -43 33 -100 83 -127 113 -42 46 -52 65 -71 137 -12 46 -28 109 -37 139 -11 38 -17 123 -21 280 -3 124 -1 374 4 555 9 315 11 334 36 410 14 44 26 97 26 117 0 20 11 103 25 185 14 81 37 202 50 268 13 66 36 192 51 280 17 102 35 177 50 206 13 25 35 88 49 140 15 52 39 117 55 144 15 28 37 81 49 118 12 38 35 92 51 120 16 29 38 78 50 110 12 32 34 73 49 90 15 18 44 61 63 97 19 36 47 88 62 115 14 28 40 79 56 115 16 36 46 85 65 110 19 25 49 64 66 87 17 23 44 73 60 112 16 38 54 107 85 153 31 46 66 94 79 108 12 14 37 52 55 85 17 33 48 89 68 125 20 36 61 105 90 153 30 49 65 94 80 102 15 7 54 40 88 73 49 47 65 71 82 121 17 50 37 80 100 149 43 48 88 103 99 122 12 19 37 49 55 66 18 17 58 59 88 94 30 34 98 108 150 163 53 56 107 118 120 137 13 19 91 103 174 185 84 83 184 189 225 238 40 48 77 87 81 87 5 0 22 19 39 42 17 23 57 58 89 78 32 21 80 63 107 94 27 31 81 78 120 105 38 27 107 85 152 128 45 43 104 96 130 119 26 23 63 49 80 58 18 9 55 35 81 59 27 23 70 58 96 77 27 19 76 54 109 78 34 23 65 49 69 57 5 7 40 35 78 62 39 26 106 68 150 93 43 25 120 73 171 108 51 35 115 75 143 89 28 14 67 40 86 58 19 18 65 49 103 69 37 20 97 53 135 73 37 20 92 55 122 78 30 23 87 62 125 87 39 25 111 68 161 97 51 28 111 58 135 66 24 9 70 31 101 51 32 19 89 46 128 59 39 13 89 37 113 54 23 16 71 37 107 46 37 10 84 31 110 50 29 21 95 49 188 79 79 25 149 46 156 46 6 0 45 20 86 45 47 28 125 61 205 86 72 23 149 53 171 66 23 13 86 32 142 43 56 10 132 32 169 48 37 16 92 33 121 36 30 4 78 16 107 27 30 11 98 26 152 33 67 9 149 31 261 69 90 31 191 62 225 67 34 6 112 15 172 19 97 7 120 13 190 45 l80 38 94 -13 c80 -10 108 -10 195 5 55 9 129 21 162 26 34 6 162 10 285 10 123 -1 270 -5 326 -9 76 -7 111 -14 137 -30 19 -12 81 -31 138 -42 57 -11 153 -23 215 -28 105 -8 117 -11 205 -55 62 -31 111 -48 148 -52 40 -4 69 -16 107 -41 29 -19 87 -46 128 -58 42 -13 95 -33 118 -44 23 -11 87 -32 142 -46 55 -15 122 -40 148 -56 27 -16 84 -41 126 -54 43 -14 113 -47 157 -74 43 -27 104 -65 134 -84 30 -19 80 -46 110 -59 38 -17 82 -52 141 -111 58 -58 104 -94 144 -113 32 -15 90 -58 130 -95 40 -36 98 -84 130 -105 32 -22 87 -56 122 -76 35 -20 92 -61 126 -90 34 -29 82 -72 107 -95 25 -23 82 -78 128 -122 45 -44 101 -93 125 -110 23 -16 61 -46 83 -67 23 -22 54 -50 70 -64 16 -14 91 -91 166 -170 75 -80 150 -164 167 -186 16 -23 38 -48 49 -55 10 -8 37 -42 58 -76 21 -33 57 -87 78 -120 22 -32 57 -76 77 -98 21 -22 54 -62 73 -90 20 -27 50 -77 67 -110 17 -33 42 -74 54 -91 13 -16 37 -60 53 -97 17 -36 42 -82 57 -101 14 -19 49 -88 76 -153 28 -65 63 -172 79 -238 16 -66 40 -150 54 -186 14 -37 32 -109 41 -160 9 -52 20 -161 25 -244 7 -132 12 -158 37 -215 l28 -65 -2 -340 c-1 -316 -3 -344 -22 -399 -11 -32 -26 -97 -32 -145 -6 -47 -20 -136 -30 -198 -18 -104 -24 -122 -97 -260 -43 -81 -88 -174 -101 -207 -13 -32 -45 -83 -71 -115 -25 -31 -63 -79 -83 -107 -20 -29 -48 -77 -62 -107 -13 -31 -41 -80 -61 -109 -21 -29 -54 -71 -74 -93 -20 -22 -63 -74 -94 -115 -32 -41 -68 -95 -81 -120 -13 -25 -33 -54 -45 -65 -12 -11 -40 -45 -61 -75 -21 -30 -67 -89 -103 -130 -37 -41 -81 -95 -98 -120 -18 -25 -80 -93 -139 -151 -58 -58 -129 -135 -157 -171 -29 -36 -60 -72 -71 -79 -11 -8 -59 -48 -109 -91 -49 -42 -102 -83 -118 -91 -16 -8 -65 -22 -109 -32 -44 -9 -96 -21 -115 -27 -19 -6 -50 -24 -67 -41 -23 -21 -40 -54 -59 -111 -22 -68 -35 -90 -83 -139 -41 -43 -71 -63 -115 -79 -32 -12 -75 -37 -95 -56 -20 -19 -67 -58 -106 -87 -38 -29 -89 -62 -112 -74 -22 -11 -60 -23 -82 -27 -23 -4 -72 -25 -109 -47 -37 -22 -86 -57 -110 -78 -24 -21 -58 -41 -75 -45 -18 -3 -86 -24 -151 -46 -66 -22 -162 -62 -213 -90 -84 -45 -103 -51 -181 -58 -48 -4 -105 -14 -127 -23 -22 -8 -60 -18 -85 -22 -25 -4 -91 -27 -148 -51 -73 -32 -125 -47 -185 -55 -45 -6 -98 -14 -117 -19 -19 -4 -78 -19 -130 -33 -60 -16 -136 -27 -205 -31 -61 -3 -155 -12 -210 -20 -55 -8 -140 -17 -190 -21 -49 -4 -109 -11 -133 -16 -24 -5 -143 -16 -265 -24 -122 -8 -316 -16 -432 -17 -115 -2 -286 3 -380 10 -93 7 -224 16 -290 22 -66 5 -192 21 -280 35 -88 14 -196 30 -240 35 -44 5 -100 13 -125 19 -25 5 -65 17 -90 26 -25 9 -95 27 -156 40 -61 13 -163 44 -227 69 -63 25 -124 46 -134 46 -11 0 -56 18 -101 40 -45 22 -137 57 -205 79 -67 22 -171 58 -231 80 -59 22 -122 51 -140 64 -17 13 -46 32 -64 41 -18 9 -83 26 -145 37 -73 13 -132 30 -171 50 -33 17 -78 43 -101 59 -22 15 -109 61 -193 100 -112 53 -159 70 -177 66 -15 -4 -27 -16 -31 -31 -4 -17 4 -40 29 -82 26 -42 50 -67 90 -91 30 -18 65 -44 78 -58 13 -14 47 -37 74 -51 28 -14 64 -36 80 -48 17 -13 58 -37 93 -53 35 -17 79 -45 98 -62 19 -17 113 -69 207 -117 95 -47 218 -103 274 -123 57 -21 134 -56 171 -79 38 -22 71 -41 75 -41 4 0 51 -20 105 -44 63 -29 133 -52 200 -65 57 -12 133 -34 170 -50 42 -19 100 -34 157 -41 50 -6 155 -24 235 -40 80 -16 183 -41 229 -55 47 -14 102 -25 124 -25 22 0 94 -11 161 -24 66 -13 153 -29 191 -36 39 -7 189 -15 335 -18 146 -3 330 -5 410 -5 90 0 189 7 260 18 82 13 181 19 345 20 195 2 243 6 315 23 47 12 125 26 174 32 49 6 92 13 96 15 3 2 87 20 186 40 99 19 234 39 300 44 65 5 133 15 149 21 17 6 50 24 75 40 25 16 83 38 130 50 47 11 128 38 180 59 52 21 120 46 150 56 30 10 85 30 122 46 37 16 102 38 144 49 42 10 92 29 112 43 21 13 58 33 84 45 26 11 68 35 93 52 25 17 70 42 100 55 30 14 72 37 94 53 22 16 61 37 88 47 26 10 74 36 107 57 38 24 71 38 92 38 18 0 40 -7 48 -16 11 -10 16 -35 17 -72 0 -31 0 -77 -1 -102 -1 -25 -8 -72 -16 -105 -7 -33 -14 -90 -14 -126 0 -39 -9 -95 -21 -135 -18 -59 -20 -80 -13 -139 5 -38 9 -151 8 -250 0 -156 -4 -196 -26 -295 -25 -109 -27 -136 -33 -495 -4 -209 -12 -402 -17 -430 -6 -27 -11 -115 -12 -195 -1 -100 -8 -182 -23 -265 -12 -66 -27 -190 -32 -275 -6 -85 -18 -182 -26 -215 -9 -33 -36 -96 -61 -140 -26 -44 -67 -102 -93 -129 -25 -27 -82 -75 -126 -107 -44 -32 -100 -85 -125 -116 -42 -54 -52 -60 -120 -81 -41 -13 -111 -34 -156 -47 -60 -19 -103 -25 -173 -25 -84 0 -102 4 -194 40 -56 22 -114 48 -128 57 -15 10 -51 37 -80 59 -30 23 -66 55 -81 70 -14 16 -52 67 -83 114 -35 51 -69 117 -85 166 -15 44 -44 103 -64 131 -20 28 -51 84 -70 125 -19 42 -39 93 -45 114 -6 22 -16 84 -21 139 -5 55 -17 124 -26 153 -10 29 -34 72 -55 96 -21 24 -52 49 -68 56 -20 8 -70 11 -153 8 -107 -3 -129 -7 -172 -28 -27 -14 -57 -38 -67 -54 -10 -16 -21 -48 -24 -70 -4 -23 -24 -86 -46 -141 -21 -55 -47 -134 -58 -175 -11 -41 -48 -133 -82 -205 -34 -71 -73 -148 -88 -170 -15 -22 -32 -52 -38 -66 -6 -15 -25 -42 -41 -60 -16 -19 -46 -62 -66 -95 -20 -34 -59 -83 -87 -108 -34 -30 -60 -46 -78 -46 -14 0 -31 4 -38 8 -7 4 -20 25 -29 47 -12 29 -18 95 -25 279 -4 133 -10 289 -11 348 -3 105 -4 107 -42 162 -21 30 -57 73 -81 95 -31 29 -64 46 -117 62 -40 13 -96 23 -124 23 -40 1 -59 -5 -92 -28 -30 -20 -51 -48 -75 -95 l-32 -66 -1 -200 c0 -110 -4 -216 -8 -235 -5 -19 -31 -79 -59 -134 -29 -58 -67 -116 -92 -140 -23 -22 -71 -67 -107 -98 -36 -32 -88 -66 -116 -77 -28 -11 -119 -54 -203 -96 -121 -61 -161 -77 -196 -77 -25 0 -66 6 -93 12 -35 8 -68 28 -120 72 -54 45 -90 89 -147 176 -42 63 -89 130 -106 149 -19 22 -38 64 -56 126 -15 50 -37 110 -48 132 -12 22 -36 90 -53 150 -18 61 -37 146 -41 190 -4 44 -14 113 -23 153 -11 51 -16 126 -16 245 0 94 5 219 12 277 l11 105 -35 70 c-20 39 -44 78 -54 87 -11 9 -44 28 -74 42 -47 22 -69 26 -154 26 l-100 0 -136 -64 c-74 -35 -164 -73 -200 -85 -36 -11 -96 -25 -135 -31 -52 -8 -88 -22 -140 -52 -38 -23 -113 -69 -165 -101 -52 -33 -112 -71 -133 -85 -21 -14 -62 -50 -90 -79 -29 -30 -79 -70 -112 -90 -33 -20 -77 -51 -99 -67 -21 -17 -77 -66 -125 -109 -47 -44 -111 -96 -142 -118 -31 -21 -70 -55 -86 -76 -17 -21 -40 -58 -53 -82 -12 -24 -40 -62 -62 -85 -22 -22 -60 -75 -84 -116 -25 -42 -62 -129 -85 -200 -34 -103 -40 -134 -35 -175 3 -27 13 -73 21 -102 9 -29 27 -66 41 -83 14 -17 67 -55 118 -84 50 -30 123 -64 163 -76 64 -19 78 -20 130 -10 32 7 81 21 108 31 28 10 73 21 100 24 28 4 98 22 157 40 81 25 123 45 170 79 35 25 83 60 108 78 24 18 66 45 93 60 26 15 75 55 109 90 33 35 80 86 104 114 25 28 63 64 87 80 23 15 65 49 92 74 28 26 73 61 101 78 28 18 56 32 62 32 6 0 25 -15 42 -32 18 -18 42 -49 55 -68 14 -21 30 -69 39 -119 11 -62 26 -101 55 -150 22 -36 47 -96 57 -133 9 -38 30 -89 47 -115 17 -27 61 -106 97 -178 37 -71 75 -151 84 -176 11 -27 48 -80 89 -126 40 -44 91 -103 115 -131 29 -35 62 -61 105 -81 34 -16 102 -41 151 -55 54 -16 113 -26 152 -26 59 0 74 5 172 57 59 31 124 70 145 86 21 16 70 43 109 58 38 16 84 40 100 54 17 14 48 35 70 46 22 11 61 35 86 53 26 19 70 45 97 59 28 14 79 47 114 74 35 26 72 54 82 61 13 10 23 11 38 2 12 -6 32 -32 45 -58 12 -26 28 -69 35 -97 8 -33 38 -88 88 -162 56 -83 85 -117 112 -130 25 -12 60 -17 111 -17 49 0 85 5 105 16 17 9 39 26 50 38 11 12 37 31 58 41 21 11 63 43 95 71 31 28 72 72 90 97 18 25 45 64 60 86 14 22 54 70 87 106 33 36 77 90 98 120 20 30 56 82 80 117 23 35 53 81 67 102 14 21 44 61 68 90 23 28 42 57 42 64 0 6 7 22 16 34 13 19 19 20 37 11 12 -6 35 -26 51 -43 16 -17 40 -56 54 -86 14 -30 37 -68 53 -85 15 -16 43 -56 61 -87 18 -31 47 -77 63 -103 17 -25 63 -89 104 -141 58 -75 91 -106 160 -152 47 -32 109 -67 136 -77 28 -10 78 -36 111 -57 34 -21 95 -50 135 -64 73 -25 76 -25 244 -15 114 7 193 17 240 31 39 11 104 36 145 56 50 24 96 58 137 98 34 33 78 74 97 89 20 16 55 38 78 49 24 12 59 38 80 58 20 21 50 41 67 45 17 4 44 4 59 0 16 -3 48 -24 72 -46 23 -22 59 -49 79 -60 20 -10 59 -35 86 -55 28 -19 70 -55 95 -78 25 -24 72 -61 105 -83 33 -22 78 -49 100 -61 22 -11 68 -41 102 -66 33 -25 81 -53 104 -62 24 -9 71 -22 104 -29 33 -7 104 -31 158 -53 54 -23 119 -44 145 -47 26 -4 76 -16 111 -27 48 -15 78 -19 120 -15 31 4 83 16 116 27 33 11 101 28 150 36 55 9 114 27 151 45 33 17 99 59 146 94 72 54 96 67 158 81 53 12 82 25 109 49 20 18 52 40 71 50 19 10 80 56 135 103 55 47 126 110 158 139 32 29 73 60 90 69 18 9 55 40 84 70 29 29 64 56 78 60 17 4 32 2 40 -7 8 -8 30 -76 50 -152 19 -77 45 -160 56 -187 11 -26 33 -60 48 -74 15 -15 63 -42 107 -61 43 -19 120 -44 170 -56 l91 -21 158 27 c87 14 163 29 169 32 6 4 31 23 56 43 25 21 68 49 95 63 28 13 78 36 113 50 34 14 83 43 108 64 25 21 65 54 87 74 23 20 74 59 113 86 39 28 80 55 91 62 12 6 28 8 37 5 8 -3 17 -18 21 -32 3 -15 14 -90 24 -167 11 -88 26 -159 40 -190 12 -28 36 -65 54 -83 18 -19 44 -40 59 -48 15 -8 50 -14 78 -14 35 0 67 8 103 26 29 14 93 49 142 77 50 28 105 64 124 81 18 17 60 64 92 104 32 40 67 92 78 117 11 24 33 52 49 62 16 10 46 32 66 48 21 17 54 47 74 67 21 20 52 55 71 78 24 28 41 40 55 38 16 -2 35 -32 78 -120 31 -64 66 -152 78 -195 12 -43 34 -98 49 -123 16 -25 37 -70 46 -100 13 -41 30 -67 67 -102 28 -26 78 -62 113 -79 60 -29 69 -31 157 -27 88 3 96 5 142 38 27 19 73 58 102 85 28 28 127 122 219 210 92 88 177 165 189 172 11 7 30 12 41 13 11 0 38 -10 60 -21 22 -12 59 -38 83 -58 24 -20 65 -55 91 -77 25 -23 66 -52 91 -65 39 -20 63 -24 172 -27 110 -3 138 -1 200 18 40 12 91 31 113 43 22 12 64 31 93 43 29 12 72 39 95 61 23 21 58 44 77 52 19 7 54 21 78 32 23 10 49 19 58 19 8 0 21 -15 29 -32 7 -18 21 -85 31 -148 11 -75 17 -172 17 -280 -1 -91 -6 -246 -12 -345 -7 -99 -16 -259 -22 -355 -6 -96 -14 -247 -18 -335 -6 -127 -13 -172 -30 -220 -17 -44 -25 -96 -32 -200 -4 -77 -13 -169 -19 -205 -5 -36 -10 -108 -10 -160 0 -52 -7 -124 -16 -160 -8 -36 -19 -87 -25 -115 -6 -27 -17 -84 -25 -125 -8 -41 -19 -140 -25 -220 -5 -80 -13 -210 -18 -290 -7 -117 -14 -159 -36 -220 -16 -48 -32 -121 -41 -202 -8 -69 -18 -189 -22 -265 -8 -126 -12 -144 -37 -186 -15 -26 -36 -87 -47 -135 -10 -48 -23 -141 -28 -207 -6 -90 -15 -137 -34 -190 -15 -38 -35 -108 -46 -155 -10 -47 -23 -110 -28 -140 -5 -30 -21 -82 -35 -115 -14 -33 -32 -109 -41 -169 -10 -68 -25 -130 -42 -165 -14 -31 -38 -90 -54 -131 -15 -41 -44 -106 -63 -145 -19 -38 -42 -101 -52 -140 -10 -41 -17 -104 -16 -154 0 -46 8 -110 17 -143 12 -40 26 -66 47 -84 25 -21 36 -24 71 -19 23 4 55 11 72 16 17 5 40 20 51 32 11 12 42 63 70 112 28 50 54 101 58 113 4 13 22 49 40 80 19 32 43 95 55 141 13 50 37 110 60 148 25 41 41 82 45 116 4 29 24 106 45 172 21 66 48 161 60 210 11 50 32 115 46 145 14 31 29 89 35 135 5 44 13 116 19 160 5 44 12 124 16 177 4 69 11 106 25 130 11 18 31 56 45 85 16 34 31 94 44 181 13 90 17 158 13 219 -5 82 -3 95 30 193 20 58 43 143 52 190 9 47 18 135 22 196 3 65 1 142 -6 190 -8 58 -9 100 -1 157 6 43 18 97 26 120 8 23 22 80 30 127 8 47 19 184 24 305 8 195 12 234 40 345 17 70 38 191 46 275 8 82 24 188 35 235 11 47 29 150 40 230 10 80 19 179 19 220 0 41 6 118 14 170 9 52 20 176 26 275 6 99 10 317 8 485 -2 240 0 315 11 354 10 34 28 61 60 91 25 24 95 90 154 147 59 57 134 121 166 143 32 22 85 63 117 90 33 28 85 78 116 112 31 34 64 76 74 95 9 18 31 51 49 73 18 22 38 50 44 62 6 13 20 52 31 87 11 35 31 89 45 119 13 31 29 86 35 124 7 37 19 91 28 118 12 36 16 80 14 159 -1 61 -9 139 -18 175 -9 37 -27 86 -39 111 -13 25 -56 77 -97 116 -57 55 -85 75 -128 89 -30 9 -71 26 -90 37 -19 11 -59 29 -89 39 -46 16 -84 19 -250 19 -133 0 -218 -5 -265 -15 -37 -8 -96 -28 -130 -44 -33 -16 -83 -34 -111 -40 -27 -5 -107 -37 -177 -70 -81 -39 -163 -88 -226 -135 -55 -41 -124 -89 -153 -107 -30 -18 -65 -42 -79 -55 -14 -12 -54 -36 -90 -54 -36 -18 -91 -56 -123 -85 -32 -29 -85 -89 -117 -134 -33 -44 -71 -100 -86 -123 -14 -24 -39 -56 -54 -73 -16 -16 -45 -52 -65 -80 -19 -27 -53 -87 -75 -132 -21 -44 -52 -96 -68 -115 -16 -18 -60 -80 -100 -138 -47 -70 -87 -146 -121 -229 -27 -68 -62 -142 -78 -164 -15 -23 -78 -91 -139 -152 -61 -60 -139 -135 -175 -165 -35 -31 -85 -71 -111 -89 -32 -23 -52 -31 -66 -27 -13 4 -40 43 -71 100 -27 51 -54 111 -61 132 -6 22 -15 109 -20 194 -5 85 -14 180 -21 210 -6 30 -20 71 -30 90 -10 19 -35 58 -56 85 -21 28 -63 65 -93 83 -36 21 -67 32 -93 32 -22 0 -67 -7 -100 -16 -34 -9 -74 -22 -89 -30 -15 -8 -39 -35 -54 -62 -15 -26 -44 -69 -65 -97 -20 -27 -56 -86 -78 -131 -22 -44 -66 -109 -97 -145 -31 -35 -70 -84 -86 -109 -16 -25 -66 -80 -111 -122 -45 -43 -90 -81 -101 -84 -11 -4 -25 1 -35 10 -12 13 -15 34 -14 100 1 68 9 105 39 192 34 99 38 119 38 214 0 58 -6 128 -13 156 -7 31 -23 62 -40 78 -15 15 -65 39 -116 56 -60 20 -108 30 -150 30 -38 0 -69 -6 -82 -15 -12 -8 -53 -75 -92 -149 -39 -74 -82 -147 -94 -163 -13 -15 -40 -55 -60 -88 -20 -33 -64 -88 -99 -122 -35 -35 -85 -81 -112 -103 -27 -23 -128 -81 -225 -131 -97 -49 -202 -103 -234 -121 -38 -21 -76 -33 -113 -36 -42 -3 -59 -1 -73 12 -11 10 -43 65 -72 124 l-54 107 1 175 c0 150 4 193 27 301 17 80 27 157 27 211 0 47 -6 105 -13 129 -8 24 -30 69 -50 101 -20 31 -50 66 -66 77 -16 12 -58 35 -93 51 -35 16 -92 34 -127 38 -35 5 -80 6 -99 1 -18 -4 -55 -25 -80 -47 -26 -21 -57 -56 -69 -78 -12 -21 -33 -79 -48 -129 -22 -77 -24 -96 -15 -138 5 -26 10 -67 10 -91 0 -28 -12 -68 -38 -122 -22 -43 -45 -96 -52 -118 -7 -21 -36 -84 -65 -140 -44 -84 -70 -120 -150 -202 -53 -54 -122 -125 -153 -157 -36 -37 -69 -60 -92 -66 -19 -5 -51 -12 -70 -15 -19 -3 -102 -48 -183 -100 -83 -53 -164 -97 -185 -101 -20 -4 -66 -19 -102 -35 -53 -22 -86 -29 -178 -34 -98 -6 -117 -4 -150 12 -20 11 -86 29 -145 41 -59 12 -126 28 -148 35 -22 8 -59 27 -82 43 -23 15 -76 63 -119 105 -62 63 -87 99 -133 188 -31 61 -75 132 -99 159 -37 42 -45 58 -59 132 -13 64 -14 95 -6 129 5 25 25 68 43 95 19 28 45 81 57 118 13 38 38 86 56 107 18 21 46 70 62 109 16 38 40 84 55 101 14 17 26 35 26 40 0 4 22 31 49 59 37 39 55 68 72 119 12 37 30 83 40 103 9 19 29 86 43 148 18 78 33 124 51 147 14 19 32 49 40 67 8 19 19 79 24 133 7 68 21 130 44 194 19 52 45 136 57 185 12 50 35 117 51 150 25 52 31 80 40 200 6 77 13 260 16 407 3 165 1 313 -6 385 -10 102 -15 124 -41 163 -15 25 -58 104 -93 175 -36 72 -74 151 -85 176 -11 25 -44 82 -73 125 -30 43 -60 92 -67 107 -6 15 -12 38 -12 51 0 13 12 41 26 62 14 21 50 64 81 94 30 30 107 114 170 185 63 72 129 139 148 150 18 11 54 44 79 72 27 30 58 80 72 115 14 35 36 74 49 88 13 14 41 48 62 77 21 28 54 72 73 99 19 26 72 90 117 142 45 52 94 118 109 146 15 28 43 69 63 92 20 22 53 64 74 93 21 29 49 76 64 104 14 29 44 73 67 98 22 25 63 75 89 112 26 36 55 84 65 105 10 21 33 63 53 93 20 30 51 79 69 109 18 30 39 66 46 80 7 14 22 66 33 116 11 51 31 114 45 140 16 31 30 85 40 149 8 55 20 156 26 225 7 76 21 153 36 197 17 53 24 96 25 165 0 51 1 145 1 208 0 95 -5 135 -30 230 -25 97 -31 141 -36 285 -3 98 -14 212 -25 270 -10 55 -35 170 -56 255 -20 85 -44 177 -52 205 -8 27 -24 62 -34 77 -11 15 -31 59 -44 97 -13 38 -37 95 -54 128 -16 32 -65 130 -107 218 -45 93 -93 177 -114 201 -21 23 -41 52 -45 65 -5 13 -31 58 -58 99 -28 41 -75 102 -104 135 -29 33 -70 78 -91 100 -21 22 -49 56 -62 75 -14 19 -83 93 -155 164 -71 71 -139 141 -150 156 -11 14 -51 54 -90 89 -38 35 -91 82 -117 105 -26 22 -75 64 -109 91 -34 28 -106 89 -159 137 -54 48 -120 100 -148 117 -28 16 -86 67 -129 112 -43 45 -96 94 -118 108 -22 15 -62 42 -90 61 -27 19 -70 53 -95 76 -25 22 -85 71 -133 107 -49 37 -93 67 -98 67 -5 0 -31 20 -57 44 -27 25 -70 55 -97 66 -28 12 -65 33 -83 46 -18 14 -57 36 -87 49 -30 13 -82 45 -115 69 -34 25 -89 54 -123 65 -34 11 -109 36 -167 56 -58 20 -130 51 -160 70 -30 18 -98 52 -150 75 -52 23 -120 50 -150 59 -30 10 -134 43 -230 74 -96 30 -208 60 -248 66 -40 6 -100 22 -135 36 -34 14 -118 37 -187 51 -69 14 -161 34 -205 44 -44 11 -127 27 -185 35 -65 9 -172 14 -280 13 -96 0 -224 -4 -285 -9z m3431 -8564 c25 -19 37 -40 49 -83 9 -31 32 -88 51 -125 19 -37 49 -105 66 -150 29 -79 31 -90 39 -307 5 -124 10 -261 11 -305 2 -68 -4 -102 -40 -229 -26 -90 -47 -188 -52 -245 -5 -54 -21 -129 -35 -171 -14 -41 -33 -115 -41 -165 -9 -49 -25 -108 -36 -130 -12 -22 -34 -78 -50 -125 -15 -46 -40 -101 -53 -123 -14 -21 -39 -72 -55 -114 -16 -41 -37 -84 -46 -94 -10 -12 -31 -19 -51 -19 -30 0 -36 5 -50 38 -8 20 -18 73 -20 117 -3 44 0 139 7 210 6 72 15 182 20 245 5 63 16 151 25 194 10 52 19 182 25 370 5 160 16 345 24 411 9 66 16 161 16 210 0 50 5 107 11 128 5 20 17 77 25 125 8 48 24 142 34 210 10 68 24 130 31 138 6 8 23 14 37 14 14 0 40 -11 58 -25z m-11806 -1306 c47 -28 105 -61 130 -74 25 -13 95 -73 156 -133 62 -60 144 -133 183 -162 51 -38 89 -77 128 -134 31 -45 82 -112 112 -150 31 -38 88 -104 127 -147 40 -43 84 -93 98 -112 15 -19 38 -63 51 -97 13 -34 35 -76 48 -94 13 -17 33 -52 44 -77 12 -26 37 -71 57 -100 20 -30 51 -97 68 -149 25 -74 32 -113 32 -175 1 -62 -5 -100 -28 -168 -16 -49 -36 -95 -44 -104 -11 -11 -28 -14 -58 -10 -24 2 -76 21 -116 42 -40 21 -113 66 -163 100 -59 41 -114 91 -159 144 -38 45 -112 140 -163 213 -52 72 -104 150 -115 172 -11 23 -38 64 -59 92 -22 28 -51 80 -65 114 -14 35 -36 77 -49 94 -12 17 -32 49 -43 71 -11 22 -36 64 -56 94 -20 29 -43 78 -51 110 -9 31 -25 79 -36 106 -12 28 -32 79 -46 115 -14 36 -43 124 -64 195 -22 72 -43 151 -46 177 -4 35 -1 54 11 73 9 14 20 25 24 25 4 0 45 -23 92 -51z m19892 -719 c44 -13 74 -30 98 -55 l35 -36 3 -119 c2 -66 -1 -143 -7 -171 -6 -28 -22 -65 -36 -83 -13 -17 -37 -63 -53 -101 -16 -39 -50 -101 -76 -140 -28 -43 -71 -89 -111 -120 -35 -27 -91 -67 -125 -89 -34 -21 -83 -45 -108 -52 -25 -8 -63 -14 -84 -14 -21 0 -84 7 -138 17 -96 15 -102 15 -141 -3 -23 -10 -65 -41 -93 -70 -28 -28 -69 -71 -91 -95 -22 -24 -71 -66 -108 -94 -38 -27 -91 -65 -117 -83 -33 -23 -55 -32 -68 -28 -11 4 -25 21 -31 38 -6 17 -11 60 -11 96 0 35 -7 90 -15 122 -8 32 -26 82 -40 112 -15 32 -25 71 -25 99 0 37 7 55 33 89 17 23 46 64 62 90 17 26 43 63 58 81 15 19 51 70 80 114 29 44 86 115 127 159 60 62 91 86 155 117 44 22 105 55 135 75 30 19 87 44 125 56 39 12 89 32 113 44 23 12 67 28 96 34 30 6 82 15 117 19 35 5 89 9 120 10 32 0 85 -8 121 -19z m-14597 -500 c13 -13 29 -38 36 -57 6 -18 8 -51 4 -73 -4 -22 -16 -51 -27 -65 -11 -14 -45 -43 -77 -64 -45 -31 -64 -53 -96 -110 -29 -55 -69 -101 -164 -194 -114 -111 -136 -128 -226 -171 -55 -27 -138 -70 -185 -97 -47 -26 -103 -50 -126 -54 -22 -3 -61 -1 -87 6 -31 7 -56 22 -72 41 -16 19 -25 42 -25 65 0 24 17 67 51 131 29 52 67 111 85 131 18 20 70 72 114 116 44 44 101 99 127 121 27 23 62 48 78 57 17 8 47 31 68 51 21 19 74 56 118 81 43 26 103 53 133 61 30 8 74 23 98 34 31 15 58 20 96 17 37 -3 59 -10 77 -27z"/>
<path d="M3855 19113 c-16 -2 -63 -13 -103 -24 -40 -11 -118 -24 -173 -28 -79 -6 -106 -12 -127 -29 -15 -12 -63 -47 -107 -79 -44 -31 -116 -72 -160 -90 -44 -18 -114 -50 -155 -71 -58 -29 -97 -60 -180 -142 -58 -58 -117 -121 -132 -140 -14 -19 -36 -60 -48 -90 -12 -30 -46 -99 -76 -152 -30 -54 -63 -102 -74 -108 -10 -5 -28 -27 -41 -47 -12 -21 -34 -51 -49 -68 -15 -16 -53 -70 -83 -118 -31 -49 -65 -120 -77 -158 -11 -38 -41 -109 -65 -156 -25 -48 -45 -94 -45 -102 0 -8 -18 -67 -39 -130 -22 -64 -51 -163 -65 -221 -14 -58 -35 -138 -46 -179 -12 -43 -20 -106 -20 -150 0 -42 -5 -94 -10 -116 -6 -22 -15 -75 -20 -118 -8 -55 -21 -99 -45 -145 -28 -56 -37 -91 -55 -215 -12 -82 -28 -167 -36 -190 -8 -23 -18 -70 -21 -104 -4 -40 0 -93 12 -152 9 -50 15 -103 13 -118 -3 -15 -21 -113 -41 -218 -24 -131 -37 -234 -41 -333 -4 -90 -12 -158 -22 -185 -8 -23 -23 -68 -31 -101 -16 -57 -15 -61 7 -130 18 -53 23 -93 23 -156 0 -63 -6 -99 -22 -140 -15 -38 -25 -93 -31 -180 -5 -69 -10 -262 -9 -430 0 -205 -5 -354 -16 -455 -8 -82 -20 -179 -26 -214 -8 -44 -9 -97 -3 -165 5 -56 9 -164 9 -241 1 -77 4 -167 8 -200 6 -44 3 -96 -12 -192 -13 -79 -21 -180 -21 -252 0 -75 6 -145 16 -188 13 -54 15 -96 10 -199 -4 -72 -9 -198 -12 -280 -3 -82 -6 -210 -8 -284 -3 -115 -7 -146 -30 -209 -21 -61 -28 -104 -36 -235 -6 -89 -10 -188 -9 -221 0 -33 -1 -143 -3 -245 -3 -136 -9 -205 -22 -260 -17 -70 -18 -83 -4 -190 11 -85 13 -151 8 -250 -4 -74 -15 -160 -23 -190 -9 -30 -21 -111 -27 -180 -5 -69 -14 -174 -20 -234 -6 -59 -12 -112 -15 -116 -2 -4 -11 -86 -20 -182 -8 -97 -22 -195 -31 -219 -8 -24 -21 -74 -29 -110 -8 -36 -42 -128 -75 -205 -34 -76 -74 -154 -88 -173 -15 -18 -43 -57 -62 -86 -19 -29 -53 -81 -75 -115 -22 -34 -63 -88 -91 -119 -27 -31 -66 -78 -86 -106 -19 -27 -60 -99 -90 -160 -31 -60 -76 -151 -101 -201 -29 -60 -47 -111 -51 -145 -3 -30 -13 -123 -21 -207 -9 -84 -17 -199 -17 -255 -1 -75 3 -112 15 -140 9 -21 41 -67 71 -101 33 -37 83 -79 125 -104 63 -38 77 -42 134 -42 l64 0 49 53 c28 28 77 88 111 132 33 44 72 103 87 130 14 28 40 66 56 86 21 24 38 63 55 127 14 50 35 113 48 139 13 27 34 80 47 118 12 39 35 100 51 137 16 36 38 106 50 155 11 48 22 96 25 105 3 9 24 42 47 72 23 30 50 69 59 86 10 17 22 29 27 25 5 -3 21 -29 35 -58 14 -28 39 -70 55 -92 20 -26 35 -61 42 -100 6 -35 29 -94 54 -140 24 -44 51 -107 60 -140 10 -33 30 -80 46 -105 16 -25 35 -66 44 -90 8 -25 37 -96 63 -158 27 -65 64 -133 86 -160 21 -26 49 -71 62 -100 12 -28 46 -77 75 -107 28 -30 79 -70 113 -89 33 -19 92 -43 130 -55 37 -12 94 -21 127 -21 32 0 105 5 161 11 57 6 127 20 156 31 30 11 97 53 150 93 54 39 118 82 144 95 29 14 83 60 140 119 51 53 124 136 163 184 38 48 72 87 75 87 4 0 25 16 49 36 23 20 74 75 114 122 40 46 86 103 103 126 17 22 76 87 132 144 55 56 105 102 110 102 5 0 16 -8 25 -17 8 -10 20 -37 26 -60 6 -23 20 -61 31 -85 14 -32 20 -65 20 -128 0 -47 7 -111 15 -143 8 -31 37 -101 64 -154 27 -54 60 -108 72 -120 13 -12 38 -27 54 -33 17 -7 73 -14 125 -17 86 -5 101 -3 159 21 35 14 84 42 110 63 25 21 104 94 174 163 71 69 156 161 189 205 33 44 76 96 96 115 21 20 70 70 111 113 51 53 85 80 111 88 21 6 49 9 62 6 13 -4 40 -17 58 -30 19 -12 44 -40 56 -61 16 -29 23 -62 27 -144 4 -59 15 -150 26 -202 11 -52 21 -122 21 -155 0 -33 7 -91 15 -130 14 -66 18 -74 76 -129 34 -32 80 -67 103 -77 28 -12 65 -19 113 -19 49 0 90 7 127 20 29 12 74 39 99 60 25 22 74 84 110 137 35 54 83 131 107 171 23 40 53 108 65 152 16 57 34 94 61 127 22 26 58 69 81 96 24 26 52 66 64 89 12 23 40 65 63 92 22 28 70 78 106 113 43 41 78 66 105 73 28 8 49 8 66 1 15 -5 46 -36 70 -68 25 -32 63 -89 85 -128 22 -38 71 -131 107 -205 37 -74 74 -161 82 -194 8 -32 31 -81 49 -110 19 -28 46 -83 60 -122 15 -40 48 -112 75 -160 27 -49 61 -98 76 -109 22 -17 42 -20 118 -20 91 0 93 0 198 54 58 30 114 61 125 70 10 9 44 45 75 81 31 36 63 79 72 95 8 17 24 60 35 97 12 37 31 86 43 110 12 23 32 73 45 110 12 37 50 111 84 165 34 54 82 129 108 166 28 40 65 79 87 93 22 13 48 24 57 24 10 0 26 -17 38 -41 12 -22 30 -70 41 -107 12 -37 41 -108 65 -159 30 -63 55 -100 78 -118 19 -15 56 -33 82 -41 26 -8 67 -14 91 -14 24 0 56 6 71 14 15 8 45 34 68 58 23 24 66 75 96 113 31 39 79 109 107 156 28 47 58 106 66 130 9 25 36 69 61 99 25 30 67 87 93 125 26 39 76 117 111 175 34 58 72 116 84 128 11 13 33 30 47 37 14 8 35 12 46 9 14 -4 36 -40 71 -119 39 -84 52 -124 52 -159 0 -26 9 -74 21 -108 11 -34 35 -79 54 -100 20 -24 45 -75 65 -131 17 -50 44 -116 60 -147 15 -30 33 -72 39 -92 7 -20 26 -54 43 -75 16 -21 43 -66 58 -101 17 -37 52 -87 86 -122 42 -44 71 -65 113 -80 31 -12 79 -36 106 -54 28 -19 63 -37 78 -40 15 -4 86 -2 158 4 72 7 145 17 162 23 18 7 66 30 107 52 46 24 106 69 154 115 43 41 104 108 135 149 31 41 70 93 87 115 18 23 85 95 149 161 64 66 125 136 135 155 10 19 33 49 50 65 18 17 46 50 63 75 17 25 69 87 116 139 47 52 111 119 141 150 30 31 72 77 92 102 20 25 48 70 61 100 14 30 64 104 112 164 48 61 94 124 103 140 8 17 40 66 71 110 30 44 76 106 101 137 25 31 63 83 85 115 22 32 61 80 86 108 26 27 57 70 69 95 12 25 43 79 68 120 25 41 59 90 76 109 17 18 49 46 70 62 30 22 50 29 85 29 26 0 56 -7 68 -15 11 -8 42 -49 68 -92 27 -43 65 -96 85 -118 21 -22 44 -53 52 -70 8 -16 47 -133 87 -260 40 -126 87 -275 106 -330 18 -55 43 -126 54 -157 13 -36 21 -81 21 -122 0 -36 -9 -103 -20 -150 -12 -52 -39 -123 -70 -183 -27 -53 -50 -102 -50 -108 0 -6 -16 -30 -36 -53 -19 -23 -69 -69 -110 -102 -41 -33 -113 -83 -160 -112 -47 -28 -141 -71 -207 -96 -67 -24 -142 -48 -167 -53 -25 -5 -90 -9 -145 -9 -55 1 -131 2 -170 3 -49 1 -80 -4 -102 -16 -18 -10 -42 -27 -53 -39 -11 -12 -20 -33 -20 -47 1 -14 9 -40 18 -57 9 -18 48 -64 85 -104 37 -39 83 -78 102 -86 24 -10 75 -14 168 -14 83 0 153 5 187 14 30 8 109 40 175 71 66 31 127 63 135 70 9 8 46 31 82 52 36 21 93 58 126 83 34 25 94 66 135 93 40 26 124 98 187 160 63 62 139 139 168 172 31 35 74 101 103 160 34 69 56 129 70 195 10 52 22 145 25 205 6 107 6 112 -24 185 -17 41 -51 127 -76 191 -24 63 -54 151 -66 195 -12 43 -31 97 -43 119 -11 22 -37 87 -58 144 -22 57 -43 109 -48 115 -6 7 -25 48 -44 93 -19 44 -46 96 -61 115 -14 20 -37 66 -50 104 -14 38 -51 121 -83 184 -32 63 -80 152 -107 197 -26 45 -56 89 -67 98 -10 10 -46 25 -81 35 -35 10 -81 25 -104 34 -28 10 -51 12 -77 6 -20 -4 -56 -19 -79 -33 -24 -14 -58 -44 -76 -66 -18 -23 -42 -61 -52 -84 -10 -23 -23 -82 -30 -132 -6 -49 -17 -99 -23 -111 -7 -11 -21 -35 -32 -53 -11 -18 -33 -55 -50 -81 -16 -27 -50 -77 -74 -112 -25 -35 -63 -85 -85 -111 -23 -27 -59 -70 -82 -95 -22 -26 -65 -90 -96 -142 -30 -52 -65 -113 -76 -135 -12 -22 -49 -71 -82 -110 -34 -38 -94 -117 -132 -175 -39 -58 -83 -130 -99 -161 -21 -42 -59 -86 -143 -165 -64 -59 -130 -128 -148 -153 -18 -25 -51 -69 -73 -97 -22 -28 -68 -87 -102 -130 -35 -44 -136 -149 -225 -235 -90 -86 -181 -172 -203 -191 -22 -20 -71 -60 -108 -90 -38 -30 -85 -60 -105 -67 -20 -8 -67 -26 -104 -42 -40 -18 -84 -29 -111 -29 -29 0 -64 10 -105 31 -34 17 -78 49 -98 72 -19 23 -57 87 -83 142 -26 55 -62 132 -79 170 -17 39 -46 120 -65 180 -19 61 -49 150 -67 199 -18 49 -47 162 -66 250 -19 89 -38 199 -43 246 -5 47 -21 121 -35 165 -19 61 -34 89 -63 117 -21 20 -56 41 -79 47 -23 6 -57 8 -75 5 -19 -4 -51 -15 -71 -26 -21 -10 -53 -32 -73 -49 -19 -17 -55 -60 -80 -96 -25 -36 -56 -86 -69 -111 -13 -26 -37 -64 -54 -84 -16 -21 -35 -52 -41 -70 -7 -18 -23 -55 -37 -83 -13 -27 -41 -82 -62 -121 -20 -39 -57 -95 -82 -124 -25 -29 -66 -74 -91 -99 -25 -25 -67 -72 -94 -104 -27 -32 -57 -63 -67 -68 -10 -6 -28 -7 -38 -4 -11 4 -24 14 -29 24 -5 9 -26 80 -46 156 -19 77 -40 184 -46 238 -5 54 -14 110 -20 125 -6 15 -36 53 -67 85 -31 32 -83 72 -114 88 -32 16 -68 29 -80 29 -13 0 -54 -25 -93 -56 -38 -30 -87 -72 -107 -92 -21 -20 -44 -54 -53 -76 -8 -23 -33 -104 -56 -181 -22 -77 -57 -183 -76 -235 -20 -52 -46 -111 -59 -132 -14 -21 -33 -61 -44 -88 -11 -27 -35 -73 -55 -102 -19 -29 -43 -79 -54 -110 -11 -31 -38 -87 -60 -125 -23 -37 -63 -95 -89 -127 -26 -33 -62 -75 -80 -94 -29 -30 -37 -34 -69 -29 -19 4 -44 14 -55 24 -11 10 -38 53 -60 97 -21 43 -53 115 -69 159 -17 45 -65 147 -108 227 -42 80 -85 165 -94 190 -9 25 -39 76 -66 113 -27 37 -57 91 -67 120 -9 29 -25 69 -36 90 -12 24 -38 50 -71 71 -29 18 -76 45 -105 60 -30 15 -76 30 -103 33 -34 4 -62 1 -94 -11 -26 -10 -59 -34 -79 -57 -18 -22 -42 -61 -51 -87 -10 -26 -39 -85 -64 -132 -25 -47 -62 -103 -81 -125 -20 -22 -46 -53 -59 -70 -12 -16 -75 -84 -140 -150 -65 -67 -139 -152 -165 -190 -25 -39 -65 -92 -89 -119 -37 -41 -48 -48 -70 -42 -14 3 -39 25 -56 48 -18 24 -36 61 -42 83 -6 22 -20 70 -30 106 -14 49 -37 91 -94 170 -42 57 -98 147 -125 199 -26 52 -65 112 -86 133 -22 21 -67 55 -102 74 -51 28 -74 36 -115 35 -29 0 -77 -10 -107 -22 -30 -12 -67 -33 -82 -47 -15 -14 -41 -53 -58 -87 -17 -34 -55 -95 -85 -136 -30 -41 -73 -111 -95 -155 -22 -44 -64 -108 -92 -142 -29 -34 -87 -92 -128 -128 -41 -36 -95 -79 -119 -95 -26 -18 -58 -30 -76 -30 -18 0 -39 8 -47 18 -9 9 -29 64 -45 122 -17 58 -39 137 -49 175 -12 45 -19 100 -18 155 1 52 9 118 23 170 12 47 30 117 41 155 14 52 19 104 19 200 1 72 -4 146 -9 166 -6 20 -33 68 -60 105 -28 38 -62 84 -76 102 -14 19 -40 42 -58 53 -17 10 -49 19 -72 19 -27 0 -55 -9 -86 -29 -26 -17 -53 -42 -61 -58 -8 -15 -24 -59 -36 -97 -12 -38 -33 -90 -45 -115 -13 -25 -31 -71 -41 -101 -9 -30 -32 -89 -50 -130 -17 -41 -42 -117 -55 -169 -16 -65 -32 -105 -54 -135 -18 -22 -47 -68 -65 -101 -19 -33 -50 -89 -70 -126 -20 -36 -54 -87 -76 -114 -22 -27 -52 -60 -66 -75 -14 -14 -67 -65 -119 -115 -51 -49 -118 -121 -147 -160 -29 -38 -82 -105 -116 -147 -34 -43 -86 -98 -115 -122 -29 -25 -67 -55 -85 -68 -17 -12 -56 -41 -84 -65 -29 -23 -70 -47 -90 -52 -21 -6 -80 -22 -131 -37 -67 -18 -104 -24 -132 -19 -29 5 -56 21 -96 58 -31 28 -71 76 -91 106 -19 31 -43 65 -53 76 -10 11 -28 45 -40 75 -12 30 -60 134 -107 230 -47 96 -95 202 -108 235 -12 34 -34 84 -49 112 -14 29 -37 90 -50 136 -14 46 -40 115 -59 153 -19 38 -40 94 -47 124 -6 30 -34 101 -62 157 -34 68 -66 116 -96 145 -25 24 -56 67 -70 97 -23 50 -24 60 -18 170 3 64 10 157 16 206 5 50 14 178 20 285 5 107 19 265 30 350 12 85 25 180 30 210 6 30 15 114 20 185 6 72 15 166 20 210 6 44 10 226 10 405 -1 251 3 344 15 410 8 47 15 112 15 145 0 33 7 114 16 180 9 66 19 208 24 315 5 107 13 245 18 305 6 61 11 225 13 365 1 140 -1 293 -6 339 -5 51 -4 138 3 225 6 77 16 256 22 396 6 140 15 307 20 370 5 63 14 162 20 220 6 58 15 139 19 180 5 41 5 161 1 265 -4 107 -4 249 2 325 5 74 18 185 28 245 11 61 24 157 30 215 6 58 13 146 15 195 3 50 10 189 15 310 6 121 15 256 21 300 5 44 19 114 31 155 19 65 22 104 23 290 2 161 7 250 23 355 12 77 29 190 38 250 8 61 29 151 45 201 16 50 40 144 53 210 14 66 32 140 41 164 9 25 32 88 51 140 19 52 34 104 34 114 0 11 21 65 46 120 26 56 72 155 103 221 32 66 82 152 111 190 29 39 121 140 205 225 83 85 180 174 216 198 35 23 93 56 128 72 35 17 80 44 101 60 20 16 64 36 96 45 32 8 83 15 114 15 30 0 101 9 158 20 63 12 144 20 208 20 72 0 130 -6 182 -19 43 -11 118 -29 168 -40 53 -11 125 -36 170 -59 44 -22 95 -44 114 -51 19 -6 59 -30 87 -54 29 -24 70 -49 90 -56 21 -7 62 -27 92 -44 30 -17 109 -82 176 -146 68 -64 157 -145 199 -181 57 -48 85 -80 108 -125 17 -33 52 -89 79 -125 26 -36 64 -78 84 -93 20 -16 50 -57 70 -97 19 -38 43 -92 54 -120 11 -28 35 -75 55 -103 19 -29 42 -79 50 -113 9 -33 22 -80 31 -103 8 -24 28 -60 45 -81 23 -29 32 -54 40 -111 6 -41 24 -115 40 -166 16 -50 35 -133 41 -185 6 -51 9 -124 5 -163 -3 -38 -15 -97 -26 -130 -12 -33 -32 -109 -46 -169 -16 -73 -34 -125 -54 -155 -16 -26 -44 -85 -63 -131 -22 -54 -36 -111 -41 -157 -3 -40 -22 -121 -41 -181 -19 -60 -49 -131 -67 -158 -17 -27 -41 -80 -54 -118 -13 -38 -35 -84 -49 -102 -14 -18 -34 -52 -44 -76 -10 -24 -35 -63 -56 -88 -20 -24 -51 -65 -68 -90 -17 -25 -44 -56 -60 -69 -15 -13 -36 -40 -47 -60 -10 -20 -87 -102 -172 -183 -84 -81 -168 -158 -186 -172 -19 -13 -59 -53 -89 -88 -31 -34 -64 -82 -75 -105 -10 -23 -23 -45 -28 -48 -6 -3 -10 -15 -10 -26 0 -10 6 -19 14 -19 8 0 18 5 22 11 3 6 32 22 63 36 31 14 81 43 111 66 30 23 98 81 150 129 64 60 104 106 125 145 28 52 40 63 159 139 104 67 148 103 233 191 57 59 126 140 153 180 28 40 61 101 74 136 14 34 33 79 44 98 11 18 37 88 58 154 20 66 52 150 70 186 18 37 51 120 73 185 22 66 49 170 60 232 15 85 31 137 65 210 24 53 59 133 77 177 17 44 38 105 45 135 8 30 14 91 14 136 0 44 -5 106 -11 138 -5 31 -28 103 -50 159 -22 56 -55 138 -74 182 -18 44 -41 107 -51 140 -9 33 -31 94 -49 135 -18 41 -45 112 -60 158 -16 45 -45 111 -64 147 -20 36 -79 120 -131 187 -52 67 -129 156 -170 198 -41 41 -93 97 -115 124 -22 27 -76 86 -121 130 -44 45 -140 138 -212 208 -72 70 -148 136 -169 146 -21 11 -56 25 -78 32 -22 7 -55 23 -73 37 -18 13 -100 56 -183 95 -98 45 -185 78 -248 93 -53 12 -139 32 -191 44 -52 11 -167 32 -255 46 -88 14 -173 27 -190 29 -16 1 -43 1 -60 -1z"/>
<path d="M34602 13601 c-37 -5 -70 -15 -83 -26 -11 -11 -35 -44 -54 -76 -19 -31 -61 -134 -94 -230 -32 -96 -81 -226 -108 -289 -28 -63 -56 -133 -63 -155 -7 -22 -36 -85 -65 -140 -33 -64 -55 -120 -60 -153 -4 -32 -2 -72 5 -101 6 -27 20 -57 30 -66 10 -9 30 -15 46 -13 19 2 35 13 47 33 10 17 34 57 54 90 19 33 45 85 57 115 13 31 43 84 67 118 24 34 61 89 82 121 21 33 47 86 58 118 11 33 34 73 54 93 20 20 43 60 54 93 16 44 39 79 99 145 44 48 85 97 91 110 6 12 14 51 18 85 5 60 4 66 -23 96 -26 29 -36 33 -89 36 -33 2 -88 0 -123 -4z"/>
<path d="M6383 13170 c-17 -6 -41 -22 -52 -36 -11 -14 -25 -50 -32 -80 -10 -43 -10 -66 0 -110 9 -39 25 -71 55 -107 23 -29 58 -63 77 -75 29 -21 43 -23 95 -19 33 2 70 10 82 18 12 7 27 27 34 44 8 17 13 70 13 125 0 82 -4 103 -27 152 -14 31 -38 64 -52 74 -17 10 -52 18 -94 20 -37 2 -81 -1 -99 -6z"/>
</g>
</svg>